<?xml version="1.0" standalone="no"?>
<!DOCTYPE svg PUBLIC "-//W3C//DTD SVG 20010904//EN"
 "http://www.w3.org/TR/2001/REC-SVG-20010904/DTD/svg10.dtd">
<svg version="1.0" xmlns="http://www.w3.org/2000/svg"
 width="225.000000pt" height="139.000000pt" viewBox="0 0 225.000000 139.000000"
 preserveAspectRatio="xMidYMid meet">

<g transform="translate(0.000000,139.000000) scale(0.100000,-0.100000)"
fill="#000000" stroke="none">
<path d="M558 1273 l-88 -4 0 -241 c0 -235 0 -241 19 -224 10 9 35 20 55 23
l37 6 -3 164 c-3 142 -1 164 13 168 9 3 83 4 165 1 163 -4 200 -14 246 -62 36
-38 48 -74 48 -139 0 -45 -5 -60 -32 -96 -57 -73 -78 -79 -271 -79 -184 0
-218 -7 -255 -55 -21 -27 -22 -36 -22 -292 l0 -264 263 3 c248 3 264 4 308 26
57 28 59 28 59 -4 l0 -27 258 5 c284 6 299 8 378 73 110 90 141 258 70 379
-13 23 -33 49 -44 59 -18 17 -21 16 -70 -17 l-51 -34 24 -16 c71 -47 86 -182
29 -252 -56 -69 -75 -74 -292 -74 l-192 0 2 183 3 182 175 6 c204 7 244 18
312 84 156 151 119 394 -74 497 -41 22 -54 23 -285 26 l-243 4 -1 -34 c-1 -18
-2 -37 -4 -43 -1 -5 -3 -14 -3 -18 -1 -4 -12 2 -24 13 -13 12 -45 33 -73 48
-47 24 -60 26 -200 27 -82 1 -189 0 -237 -2z m1022 -131 c19 -9 49 -36 67 -60
29 -38 33 -51 33 -105 0 -72 -19 -110 -76 -153 l-37 -29 -193 -5 -193 -5 -48
-46 c-26 -26 -65 -58 -86 -71 l-38 -25 25 -16 c31 -21 66 -94 66 -138 0 -40
-28 -104 -60 -138 -44 -45 -76 -51 -275 -51 l-185 0 2 183 3 182 180 6 c168 5
183 7 230 31 28 14 74 49 104 77 39 37 62 51 82 51 l29 0 0 165 0 165 168 0
c139 0 173 -3 202 -18z"/>
<path d="M1280 975 l0 -135 125 0 124 0 36 31 c42 37 59 89 45 139 -12 43 -17
50 -54 78 -26 20 -40 22 -152 22 l-124 0 0 -135z"/>
<path d="M650 484 l0 -135 156 3 156 3 34 37 c29 32 34 45 34 86 0 55 -29 108
-70 129 -17 8 -74 13 -167 13 l-143 0 0 -136z"/>
<path d="M650 976 l0 -136 115 0 c126 0 157 9 194 56 15 20 21 41 21 80 0 48
-4 59 -34 92 l-34 37 -131 3 -131 4 0 -136z"/>
<path d="M1280 485 l0 -135 143 0 c158 0 178 6 214 59 44 64 20 164 -47 198
-17 8 -74 13 -167 13 l-143 0 0 -135z"/>
</g>
</svg>
